<svg xmlns="http://www.w3.org/2000/svg" xmlns:xlink="http://www.w3.org/1999/xlink" fill="none" version="1.1" width="20" height="20" viewBox="0 0 20 20"><defs><clipPath id="master_svg0_806_0636"><rect x="0" y="0" width="20" height="20" rx="0"/></clipPath><clipPath id="master_svg1_806_0637"><rect x="0" y="0" width="20" height="20" rx="0"/></clipPath><clipPath id="master_svg2_806_0638"><rect x="-0.5" y="0" width="20" height="20" rx="0"/></clipPath></defs><g clip-path="url(#master_svg0_806_0636)"><g clip-path="url(#master_svg1_806_0637)"><g clip-path="url(#master_svg2_806_0638)"><g><g><g transform="matrix(6.123234262925839e-17,1,-1,6.123234262925839e-17,19.9544677734375,-17.2271728515625)" style="opacity:0;"><rect x="18.5908203125" y="1.3636474609375" width="18.18181800842285" height="18.18181800842285" rx="0" fill="#000000" fill-opacity="1"/></g><g><path d="M13.711471875,17.272710351562502C13.590371875,17.2731103515625,13.470871875,17.2446103515625,13.363071875,17.1893103515625L9.499391875,15.1666103515625L5.635761875,17.1893103515625C5.379801875,17.3239103515625,5.0695418750000005,17.3010103515625,4.836081875,17.1304103515625C4.6026218750000005,16.9597103515625,4.486691875,16.6710103515625,4.537271875,16.3863103515625L5.294851875,12.1211503515625L2.173637875,9.0908503515625C1.975195975,8.8928203515625,1.902338575,8.6013903515625,1.984244275,8.3332703515625C2.073822875,8.0585903515625,2.311836875,7.8587703515625,2.597880875,7.8181203515625L6.916061875,7.1893303515625L8.817581875,3.3029663515625C8.944161874999999,3.0416103515625,9.209001875,2.8756103515625,9.499391875,2.8756103515625C9.789791874999999,2.8756104418726,10.054631875,3.0416103515625,10.181211875,3.3029663515625L12.105471875,7.1817503515625L16.423671875,7.8105403515625C16.709671874999998,7.8512003515625,16.947671874999997,8.0510103515625,17.037271875000002,8.3256903515625C17.119171875,8.5938103515625,17.046371875,8.8852403515625,16.847871875,9.0832703515625L13.726671875,12.1135703515625L14.484271875,16.3787103515625C14.539471875,16.668710351562503,14.421171875,16.9644103515625,14.181171875,17.1363103515625C14.044071875,17.2324103515625,13.878871875,17.2804103515625,13.711471875,17.272710351562502Z" fill="#000000" fill-opacity="1"/></g></g></g></g></g></g></svg>