<svg xmlns="http://www.w3.org/2000/svg" xmlns:xlink="http://www.w3.org/1999/xlink" fill="none" version="1.1" width="20" height="20" viewBox="0 0 20 20"><defs><clipPath id="master_svg0_806_0667"><rect x="0" y="0" width="20" height="20" rx="0"/></clipPath><clipPath id="master_svg1_806_0668"><rect x="0" y="0" width="20" height="20" rx="0"/></clipPath><clipPath id="master_svg2_806_0669"><rect x="-1" y="-2" width="24" height="24" rx="0"/></clipPath></defs><g clip-path="url(#master_svg0_806_0667)"><g clip-path="url(#master_svg1_806_0668)"><g clip-path="url(#master_svg2_806_0669)"><g><g><g style="opacity:0;"><rect x="-1" y="-2" width="24" height="24" rx="0" fill="#000000" fill-opacity="1"/></g><g><path d="M19.3,11.43002358970642C18.7755,11.266523589706422,18.2174,11.55672358970642,18.05,12.080023589706421C17.080399999999997,15.04452358970642,14.2988,17.03662358970642,11.18,17.00002358970642C7.26639,17.044523589706422,4.05487,13.91352358970642,4,10.00000358970642C4.05487,6.086523589706421,7.26639,2.955513589706421,11.18,3.000003589706421C12.8776,2.995903589706421,14.5229,3.5868035897064208,15.83,4.670003589706421L13.66,4.310003589706421C13.1128,4.219973589706421,12.5969,4.592343589706421,12.51,5.140003589706421C12.42,5.687153589706421,12.7923,6.2030935897064206,13.34,6.290003589706421L17.58,6.990003589706421L17.75,6.990003589706421C17.866,6.989863589706421,17.981,6.9695635897064205,18.09,6.930003589706421C18.1266,6.916093589706421,18.1605,6.895773589706421,18.19,6.870003589706421C18.2617,6.843333589706421,18.3291,6.806273589706421,18.39,6.760003589706421L18.48,6.6500035897064205C18.48,6.600003589706421,18.57,6.560003589706421,18.61,6.500003589706421C18.65,6.4400035897064205,18.61,6.4000035897064205,18.66,6.360003589706421C18.6876,6.301763589706421,18.711,6.241603589706421,18.73,6.180003589706421L19.48,2.1800035897064207C19.5849,1.627714589706421,19.2223,1.094933589706421,18.67,0.9899990897064209C18.1177,0.885065089706421,17.584899999999998,1.2477145897064208,17.48,1.799999589706421L17.21,3.250003589706421C15.5348,1.798809589706421,13.394,0.9999994897064209,11.18,0.9999999897064209C6.16186,0.9555823897064208,2.0549495,4.981963589706421,2,10.00000358970642C2.0549512,15.01802358970642,6.16186,19.044423589706422,11.18,19.00002358970642C15.1898,19.06162358970642,18.7693,16.49672358970642,20,12.68002358970642C20.1598,12.14062358970642,19.8434,11.57562358970642,19.3,11.43002358970642Z" fill="#000000" fill-opacity="1"/></g></g></g></g></g></g></svg>