<svg xmlns="http://www.w3.org/2000/svg" xmlns:xlink="http://www.w3.org/1999/xlink" fill="none" version="1.1" width="20" height="20" viewBox="0 0 20 20"><defs><clipPath id="master_svg0_806_0620"><rect x="0" y="0" width="20" height="20" rx="0"/></clipPath><clipPath id="master_svg1_806_0621"><rect x="-1" y="-1" width="20" height="20" rx="0"/></clipPath><clipPath id="master_svg2_806_0622"><rect x="-3" y="-3" width="24" height="24" rx="0"/></clipPath></defs><g clip-path="url(#master_svg0_806_0620)"><g clip-path="url(#master_svg1_806_0621)"><g clip-path="url(#master_svg2_806_0622)"><g><g><g transform="matrix(-1,1.2246468525851679e-16,-1.2246468525851679e-16,-1,42,42)" style="opacity:0;"><rect x="21" y="21" width="24" height="24" rx="0" fill="#000000" fill-opacity="1"/></g><g><path d="M16,6.000001599731445L13.42,6.000001599731445L16.71,2.710001599731445C17.10245,2.3179315997314456,17.10261,1.6819115997314453,16.71035,1.2896535997314453C16.318089999999998,0.8973955997314453,15.68207,0.8975507997314454,15.29,1.2899995997314453L12,4.570001599731445L12,2.000001599731445C12,1.4477155997314453,11.55229,0.9999999997314453,11,0.9999999997314453C10.447715,0.9999999997314453,10,1.4477155997314453,10,2.000001599731445L10,7.000001599731445C10,7.552281599731446,10.447715,8.000001599731444,11,8.000001599731444L16,8.000001599731444C16.55228,8.000001599731444,17,7.552281599731446,17,7.000001599731445C17,6.447711599731445,16.55228,6.000001599731445,16,6.000001599731445Z" fill="#000000" fill-opacity="1"/></g><g><path d="M7.000001421737671,10L2.0000014217376707,10C1.4477154217376709,10,1.000000001737671,10.447715,1.000000001737671,11C1.000000001737671,11.55229,1.4477154217376709,12,2.0000014217376707,12L4.570001421737671,12L1.2900004217376708,15.29C0.8956020217376709,15.681180000000001,0.8956020217376709,16.31882,1.2900004217376708,16.71C1.681177421737671,17.1044,2.318821421737671,17.1044,2.7100014217376707,16.71L6.000001421737671,13.42L6.000001421737671,16C6.000001421737671,16.55228,6.4477114217376705,17,7.000001421737671,17C7.552281421737671,17,8.000001421737672,16.55228,8.000001421737672,16L8.000001421737672,11C8.000001421737672,10.447715,7.552281421737671,10,7.000001421737671,10Z" fill="#000000" fill-opacity="1"/></g></g></g></g></g></g></svg>