<svg xmlns="http://www.w3.org/2000/svg" xmlns:xlink="http://www.w3.org/1999/xlink" fill="none" version="1.1" width="20" height="20" viewBox="0 0 20 20"><defs><clipPath id="master_svg0_806_0605"><rect x="0" y="0" width="20" height="20" rx="0"/></clipPath><clipPath id="master_svg1_806_0606"><rect x="0" y="0" width="20" height="20" rx="0"/></clipPath><clipPath id="master_svg2_806_0607"><rect x="-1" y="-2" width="24" height="24" rx="0"/></clipPath></defs><g clip-path="url(#master_svg0_806_0605)"><g clip-path="url(#master_svg1_806_0606)"><g clip-path="url(#master_svg2_806_0607)"><g><g><g style="opacity:0;"><rect x="-1" y="-2" width="24" height="24" rx="0" fill="#000000" fill-opacity="1"/></g><g><path d="M18.40029375,5.340002885284424L15.66029375,2.599999885284424C14.93619375,1.8664238852844237,13.76199375,1.835524885284424,13.00029375,2.5299998852844237L11.00030375,4.530002885284423L9.71030375,3.290002885284424C9.31818375,2.897877885284424,8.68242375,2.897878885284424,8.29030375,3.290002885284424C7.89818375,3.682122885284424,7.89818375,4.317882885284424,8.29030375,4.710002885284424L9.53030375,6.000002885284424L4.0003037500000005,11.530002885284423C3.67706775,11.855962885284423,3.47580575,12.283212885284424,3.43030075,12.740012885284424L3.00030136,16.910012885284424C2.97302775,17.206512885284425,3.07933855,17.499812885284424,3.2903017500000002,17.710012885284424C3.47901975,17.897212885284425,3.73449775,18.001512885284424,4.0003037500000005,18.000012885284423L4.09030375,18.000012885284423L8.26030375,17.620012885284424C8.71709375,17.574512885284424,9.144333750000001,17.373212885284424,9.47030375,17.050012885284424L15.05029375,11.470002885284424L16.29029375,12.710012885284424C16.68149375,13.104412885284423,17.31909375,13.104412885284423,17.710293749999998,12.710012885284424C18.10469375,12.318812885284423,18.10469375,11.681172885284424,17.710293749999998,11.290002885284423L16.47029375,10.050002885284425L18.47029375,8.050002885284425C19.19759375,7.281662885284423,19.16629375,6.069762885284423,18.40029375,5.340002885284424ZM5.40030375,12.940012885284423L11.00030375,7.360002885284424L13.69029375,10.060002885284424L10.900303749999999,12.850012885284423" fill="#000000" fill-opacity="1"/></g></g></g></g></g></g></svg>