<svg xmlns="http://www.w3.org/2000/svg" xmlns:xlink="http://www.w3.org/1999/xlink" fill="none" version="1.1" width="20" height="20" viewBox="0 0 20 20"><defs><clipPath id="master_svg0_806_0651"><rect x="0" y="0" width="20" height="20" rx="0"/></clipPath><clipPath id="master_svg1_806_0652"><rect x="0" y="0" width="20" height="20" rx="0"/></clipPath><clipPath id="master_svg2_806_0653"><rect x="0" y="0" width="20" height="20" rx="0"/></clipPath></defs><g clip-path="url(#master_svg0_806_0651)"><g clip-path="url(#master_svg1_806_0652)"><g clip-path="url(#master_svg2_806_0653)"><g><g><g transform="matrix(-1,1.2246468525851679e-16,-1.2246468525851679e-16,-1,40,40)" style="opacity:0;"><rect x="20" y="20" width="20" height="20" rx="0" fill="#000000" fill-opacity="1"/></g><g><path d="M5.0746778125,15.83333L15.0747078125,15.83333L13.9913078125,16.90833C13.6650078125,17.23518,13.6652078125,17.76462,13.9918078125,18.09121C14.3184078125,18.4178,14.8478078125,18.418010000000002,15.1747078125,18.09167L17.6747078125,15.59167C18.003307812499997,15.26569,18.003307812499997,14.73431,17.6747078125,14.40833L15.1747078125,11.90833C14.8487078125,11.57967,14.3173078125,11.57967,13.9913078125,11.90833C13.6627078125,12.23432,13.6627078125,12.76569,13.9913078125,13.09167L15.0747078125,14.16667L5.0746778125,14.16667C4.3566478125,14.18061,3.7633478125,13.60969,3.7496778125,12.89167L3.7496778125,10.833333C3.7496778125,10.373096,3.3765778125,10,2.9163408125,10C2.4561038125,10,2.0830078125,10.373096,2.0830078125,10.833333L2.0830078125,12.89167C2.0967566125,14.53014,3.4362078125,15.8472,5.0746778125,15.83333Z" fill="#000000" fill-opacity="1"/></g><g><path d="M4.824625,8.091695234374999C5.151345,8.418735234375,5.6813649999999996,8.418865234375,6.0082450000000005,8.091985234374999C6.335125,7.765105234375,6.334995,7.235085234375,6.007955,6.908365234375L4.924625,5.833365234375L14.924625,5.833365234375C15.642625,5.819425234375,16.235925,6.390335234375,16.249625,7.108365234375L16.249625,9.166695234375C16.249625,9.626935234375,16.622725000000003,10.000035234375,17.082925,10.000035234375C17.543225,10.000035234375,17.916325,9.626935234375,17.916325,9.166695234375L17.916325,7.108365234375C17.902525,5.4698952343750005,16.563125,4.152835234375,14.924625,4.166695234375L4.924625,4.166695234375L6.007955,3.091695234375C6.336625,2.765715234375,6.336625,2.234344234375,6.007955,1.908364234375C5.6819749999999996,1.579699034375,5.1506050000000005,1.579699034375,4.824625,1.908364234375L2.324624,4.408365234375C1.9959588,4.7343452343750005,1.9959588,5.2657152343749996,2.324624,5.591695234375L4.824625,8.091695234374999Z" fill="#000000" fill-opacity="1"/></g></g></g></g></g></g></svg>