<svg t="1661793989976" class="icon" viewBox="0 0 1024 1024" version="1.1" xmlns="http://www.w3.org/2000/svg" p-id="3470" width="20" height="20"><path d="M360.938 539.117h245.117L487.89 265.191 360.937 539.117z m145.019-416.992h26.856L789.16 699.762c12.696 28.971 25.31 48.746 37.842 59.326 12.533 10.58 28.89 15.869 49.072 15.869h5.86V794H608.008v-20.02c27.995-0.65 46.956-3.987 56.885-10.01 9.928-6.021 14.892-16.682 14.892-31.982 0-5.86-0.488-11.393-1.465-16.601-0.976-5.209-2.441-9.929-4.394-14.16l-53.711-125H346.777L300.88 682.184c-5.86 13.997-10.01 24.902-12.451 32.714-2.442 7.813-3.662 14.16-3.662 19.043 0 13.672 5.37 23.763 16.113 30.274 10.742 6.51 27.506 9.765 50.293 9.765h9.765V794h-215.82v-19.043c21.485-0.325 38.981-6.429 52.49-18.31 13.51-11.882 27.914-34.424 43.213-67.627l265.137-566.895z" fill="#000000" p-id="3471" data-spm-anchor-id="a313x.7781069.0.i8" class="selected"></path></svg>