<svg xmlns="http://www.w3.org/2000/svg" xmlns:xlink="http://www.w3.org/1999/xlink" fill="none" version="1.1" width="20" height="20" viewBox="0 0 20 20"><defs><clipPath id="master_svg0_59_2930"><rect x="0" y="0" width="20" height="20" rx="0"/></clipPath><clipPath id="master_svg1_59_2931"><rect x="-0.5" y="-0.5" width="21" height="21" rx="0"/></clipPath><clipPath id="master_svg2_59_2731"><rect x="-1.5" y="-1.5" width="22.000001907348633" height="22.000001907348633" rx="0"/></clipPath></defs><g clip-path="url(#master_svg0_59_2930)"><g clip-path="url(#master_svg1_59_2931)"><g clip-path="url(#master_svg2_59_2731)"><g><g><g transform="matrix(-1,1.2246468525851679e-16,-1.2246468525851679e-16,-1,41,41)" style="opacity:0;"><rect x="20.5" y="20.5" width="22.000001907348633" height="22.000001907348633" rx="0" fill="#000000" fill-opacity="1"/></g><g><path d="M16.8333,11.333453515625L12.8917,11.333453515625L13.5608,7.666743515625L16.8333,7.666743515625C17.3396,7.666743515625,17.75,7.256333515625,17.75,6.750073515625C17.75,6.243813515625,17.3396,5.833413515625,16.8333,5.833413515625L13.8908,5.833413515625L14.5233,2.340913515625C14.6289,1.823363515625,14.2763,1.323932715625,13.7533,1.250076215625C13.2326,1.126020915625,12.7168,1.472706515625,12.635,2.001742515625L11.9475,5.833413515625L8.390830000000001,5.833413515625L9.02333,2.340913515625C9.128879999999999,1.823365515625,8.776340000000001,1.323935315625,8.25333,1.250076215625C7.73259,1.126021515625,7.21679,1.472707515625,7.135,2.001742515625L6.4475,5.833413515625L2.166667,5.833413515625C1.660406,5.833413515625,1.25,6.243813515625,1.25,6.750073515625C1.25,7.256333515625,1.660406,7.666743515625,2.166667,7.666743515625L6.10833,7.666743515625L5.43917,11.333453515625L2.166667,11.333453515625C1.660406,11.333453515625,1.25,11.743853515625,1.25,12.250053515625C1.25,12.756353515625,1.660406,13.166753515625,2.166667,13.166753515625L5.109170000000001,13.166753515625L4.47667,16.659253515625C4.3711199999999995,17.176753515625002,4.723660000000001,17.676253515625,5.24667,17.750053515625C5.76741,17.874153515625,6.28322,17.527453515625,6.365,16.998453515625002L7.0525,13.166753515625L10.60917,13.166753515625L9.97667,16.659253515625C9.87112,17.176753515625002,10.22366,17.676253515625,10.74667,17.750053515625C11.2674,17.874153515625,11.7832,17.527453515625,11.865,16.998453515625002L12.5525,13.166753515625L16.8333,13.166753515625C17.3396,13.166753515625,17.75,12.756353515625,17.75,12.250053515625C17.75,11.743853515625,17.3396,11.333453515625,16.8333,11.333453515625ZM7.39167,11.333453515625L8.06083,7.666743515625L11.6083,7.666743515625L10.93917,11.333453515625L7.39167,11.333453515625Z" fill="#000000" fill-opacity="1"/></g></g></g></g></g></g></svg>