<svg xmlns="http://www.w3.org/2000/svg" xmlns:xlink="http://www.w3.org/1999/xlink" fill="none" version="1.1" width="21" height="21" viewBox="0 0 21 21"><defs><clipPath id="master_svg0_59_288"><rect x="0" y="0" width="21" height="21" rx="0"/></clipPath><clipPath id="master_svg1_59_289"><rect x="0" y="0" width="21" height="21" rx="0"/></clipPath></defs><g clip-path="url(#master_svg0_59_288)"><g clip-path="url(#master_svg1_59_289)"><g><g><g style="opacity:0;"><rect x="0" y="0" width="21" height="21" rx="0" fill="#000000" fill-opacity="1"/></g><g><path d="M12.6871875,9.03875L18.5234375,9.03875C18.9245375,9.03875,19.2496875,8.7136,19.2496875,8.3125C19.2496875,4.68813,16.3115575,1.749999895692,12.6871875,1.75C12.2860905,1.749999895692,11.960938334465,2.0751530000000002,11.9609375,2.47625L11.9609375,8.3125C11.960938334465,8.7136,12.2860905,9.03875,12.6871875,9.03875ZM13.4134375,3.26375C15.6536175,3.58617,17.4135175,5.34607,17.7359375,7.58625L13.4134375,7.58625L13.4134375,3.26375Z" fill="#000000" fill-opacity="1"/></g><g><path d="M18.445028125,10.500017705078125L11.313748125,10.500017705078125C10.873988125,10.500017705078125,10.517498125,10.143517705078125,10.517498125,9.703767705078125L10.517498125,2.555012705078125C10.520348125,2.073879705078125,10.103288125,1.697706205078125,9.624998125000001,1.750012635078125C5.0574481250000005,2.235011705078125,1.642419125,6.169207705078125,1.804353955,10.759577705078126C1.966288125,15.349947705078124,5.650058125,19.033747705078124,10.240428125,19.195647705078127C14.830828125,19.357547705078126,18.765028125,15.942547705078125,19.250028125,11.375017705078125C19.291128125,10.903377705078125,18.918428125,10.498217705078124,18.445028125,10.500017705078125Z" fill="#000000" fill-opacity="1"/></g></g></g></g></g></svg>