<svg xmlns="http://www.w3.org/2000/svg" xmlns:xlink="http://www.w3.org/1999/xlink" fill="none" version="1.1" width="20" height="20" viewBox="0 0 20 20"><defs><clipPath id="master_svg0_59_274"><rect x="0" y="0" width="20" height="20" rx="0"/></clipPath><clipPath id="master_svg1_59_275"><rect x="-1" y="-1" width="21" height="21" rx="0"/></clipPath></defs><g clip-path="url(#master_svg0_59_274)"><g clip-path="url(#master_svg1_59_275)"><g><g><g style="opacity:0;"><rect x="-1" y="-1" width="21" height="21" rx="0" fill="#000000" fill-opacity="1"/></g><g><path d="M14.75,1.625L4.25,1.625C2.80025,1.625,1.625,2.80025,1.625,4.25L1.625,14.75C1.625,16.1997,2.80025,17.375,4.25,17.375L14.75,17.375C16.1997,17.375,17.375,16.1997,17.375,14.75L17.375,4.25C17.375,2.80025,16.1997,1.625,14.75,1.625ZM6,5.125C6.72487,5.125,7.3125,5.71263,7.3125,6.4375C7.3125,7.16237,6.72487,7.75,6,7.75C5.27513,7.75,4.6875,7.16237,4.6875,6.4375C4.6875,5.71263,5.27513,5.125,6,5.125ZM15.625,14.6012C15.6652,15.1253,15.2739,15.5831,14.75,15.625L4.25,15.625L10.87375,9.6575C11.10425,9.44724,11.45699,9.44724,11.6875,9.6575L15.625,13.5775L15.625,14.6012Z" fill="#000000" fill-opacity="1"/></g></g></g></g></g></svg>