<svg xmlns="http://www.w3.org/2000/svg" xmlns:xlink="http://www.w3.org/1999/xlink" fill="none" version="1.1" width="21" height="21" viewBox="0 0 21 21"><defs><clipPath id="master_svg0_59_2887"><rect x="0" y="0" width="21" height="21" rx="0"/></clipPath><clipPath id="master_svg1_59_2707"><rect x="-8" y="13.0128173828125" width="26.000003814697266" height="26.000003814697266" rx="0"/></clipPath></defs><g style="mix-blend-mode:passthrough" clip-path="url(#master_svg0_59_2887)"><g transform="matrix(0.5889286994934082,-0.8081849813461304,0.8081848621368408,0.5889286994934082,-13.80533242659294,-1.1162840859615244)" clip-path="url(#master_svg1_59_2707)"><g><g><g transform="matrix(-1,-1.4876945897412952e-7,-1.2246468525851679e-16,-1,35.9990234375,78.02563744340262)" style="opacity:0;"><rect x="17.99951171875" y="39.0128173828125" width="26" height="26" rx="0" fill="#000000" fill-opacity="1"/></g><g transform="matrix(1,1.271676808300981e-7,0,1,0,4.6638498574225196e-7)"><path d="M12.58251953125,27.0959912890625L-2.58415046875,27.0959912890625C-3.18245546875,27.0959912890625,-3.66748046875,26.6109612890625,-3.66748046875,26.0126512890625C-3.66748046875,25.4143452890625,-3.18245546875,24.9293212890625,-2.58415046875,24.9293212890625L12.58251953125,24.9293212890625C13.180819531249998,24.9293212890625,13.665819531250001,25.4143452890625,13.665819531250001,26.0126512890625C13.665819531250001,26.6109612890625,13.180819531249998,27.0959912890625,12.58251953125,27.0959912890625Z" fill="#000000" fill-opacity="1"/></g></g></g></g></g></svg>