<svg xmlns="http://www.w3.org/2000/svg" xmlns:xlink="http://www.w3.org/1999/xlink" fill="none" version="1.1" width="20" height="20" viewBox="0 0 20 20"><defs><clipPath id="master_svg0_59_2942"><rect x="0" y="0" width="20" height="20" rx="0"/></clipPath><clipPath id="master_svg1_59_2943"><rect x="-1" y="-1" width="21" height="21" rx="0"/></clipPath><clipPath id="master_svg2_59_2714"><rect x="-3" y="-3" width="21" height="21" rx="0"/></clipPath></defs><g clip-path="url(#master_svg0_59_2942)"><g clip-path="url(#master_svg1_59_2943)"><g><g><g style="opacity:0;"><rect x="-1" y="-1" width="21" height="21" rx="0" fill="#000000" fill-opacity="1"/></g></g></g><g clip-path="url(#master_svg2_59_2714)"><g><g><g style="opacity:0;"><rect x="-3" y="-3" width="21" height="21" rx="0" fill="#000000" fill-opacity="1"/></g><g><path d="M14.9775,1.625L4.0225,1.625C2.6984,1.624999582767,1.624999791384,2.6984,1.625,4.0225L1.625,14.9775C1.624999791384,16.3016,2.6984,17.375,4.0225,17.375L14.9775,17.375C16.3016,17.375,17.375,16.3016,17.375,14.9775L17.375,4.0225C17.375,2.6984,16.3016,1.624999791384,14.9775,1.625ZM5.125,8.625L3.375,8.625L3.375,6.875L5.125,6.875L5.125,8.625ZM3.375,10.375L5.125,10.375L5.125,12.125L3.375,12.125L3.375,10.375ZM15.625,8.625L13.875,8.625L13.875,6.875L15.625,6.875L15.625,8.625ZM13.875,10.375L15.625,10.375L15.625,12.125L13.875,12.125L13.875,10.375ZM15.625,4.0225L15.625,5.125L13.875,5.125L13.875,3.375L14.9775,3.375C15.3351,3.375,15.625,3.6649,15.625,4.0225ZM4.0225,3.375L5.125,3.375L5.125,5.125L3.375,5.125L3.375,4.0225C3.375,3.6649,3.6649,3.375,4.0225,3.375ZM3.375,14.9775L3.375,13.875L5.125,13.875L5.125,15.625L4.0225,15.625C3.6649,15.625,3.375,15.3351,3.375,14.9775ZM15.625,14.9775C15.625,15.3351,15.3351,15.625,14.9775,15.625L13.875,15.625L13.875,13.875L15.625,13.875L15.625,14.9775Z" fill="#000000" fill-opacity="1"/></g></g></g></g></g></g></svg>