<svg xmlns="http://www.w3.org/2000/svg" xmlns:xlink="http://www.w3.org/1999/xlink" fill="none" version="1.1" width="30" height="30" viewBox="0 0 30 30"><defs><clipPath id="master_svg0_59_2754"><rect x="0" y="0" width="30" height="30" rx="0"/></clipPath></defs><g clip-path="url(#master_svg0_59_2754)"><g><g><g style="opacity:0;"><rect x="0" y="0" width="30" height="30" rx="0" fill="#000000" fill-opacity="1"/></g><g><path d="M22.5001703125,18.7500951171875C21.5181703125,18.7508951171875,20.5756703125,19.1367951171875,19.8751703125,19.8250951171875L10.0001603125,15.4250951171875L10.0001603125,15.0000951171875L10.0001603125,14.5875951171875L19.8751703125,10.1750451171875C21.6326703125,11.8977251171875,24.5449703125,11.4891851171875,25.7606703125,9.3494351171875C26.9763703125,7.209695117187501,25.8362703125,4.4987911171875,23.4566703125,3.8710591171875C21.0771703125,3.2433261171875,18.7481703125,5.0390851171875,18.7501703125,7.500045117187501L18.7501703125,7.9250451171875L8.8751603125,12.3250451171875C7.4039603125,10.8796451171875,5.0416703125,10.893575117187499,3.5876103125,12.3562251171875C2.1335553125,13.8188951171875,2.1335563125,16.1811951171875,3.5876103125,17.643895117187498C5.0416703125,19.1064951171875,7.4039603125,19.120495117187502,8.8751603125,17.6750951171875L18.7501703125,22.0875951171875L18.7501703125,22.5000951171875C18.7501703125,24.5710951171875,20.4290703125,26.2500951171875,22.5001703125,26.2500951171875C24.5712703125,26.2500951171875,26.2501703125,24.5710951171875,26.2501703125,22.5000951171875C26.2501703125,20.4289951171875,24.5712703125,18.7500951171875,22.5001703125,18.7500951171875Z" fill="#000000" fill-opacity="1"/></g></g></g></g></svg>