<svg xmlns="http://www.w3.org/2000/svg" xmlns:xlink="http://www.w3.org/1999/xlink" fill="none" version="1.1" width="30" height="30" viewBox="0 0 30 30"><defs><clipPath id="master_svg0_59_649"><rect x="1" y="1" width="28" height="28" rx="0"/></clipPath><clipPath id="master_svg1_59_650"><rect x="3" y="3" width="24" height="24" rx="0"/></clipPath></defs><g style="mix-blend-mode:passthrough"><g style="mix-blend-mode:passthrough"><rect x="0" y="0" width="30" height="30" rx="5" fill="#469D8F" fill-opacity="1"/></g><g clip-path="url(#master_svg0_59_649)"><g clip-path="url(#master_svg1_59_650)"><g><g><g transform="matrix(-1,1.2246467202362698e-16,-1.2246468525851679e-16,-1,54,54)" style="opacity:0;"><rect x="27" y="27" width="24.000001907348633" height="24.000001907348633" rx="0" fill="#000000" fill-opacity="1"/></g><g><path d="M13.45951171875,21.0002234375C13.14548171875,20.998323437499998,12.83538171875,20.9302234375,12.54951171875,20.8002234375C11.91807371875,20.5219234375,11.50754451875,19.9002234375,11.49951171875,19.210223437499998L11.49951171875,10.7902134375C11.50754355875,10.1001934375,11.91807371875,9.4785394375,12.54951171875,9.200210437500001C13.27532171875,8.8573774375,14.13308171875,8.9582896375,14.75951171875,9.4602104375L19.85951171875,13.6702134375C20.71441171875,14.3508034375,20.71441171875,15.649613437500001,19.85951171875,16.3302134375L14.75951171875,20.5402234375C14.39189171875,20.8383234375,13.93282171875,21.0007234375,13.45951171875,21.0002234375Z" fill="#FFFFFF" fill-opacity="1"/></g></g></g></g></g></g></svg>