<svg xmlns="http://www.w3.org/2000/svg" xmlns:xlink="http://www.w3.org/1999/xlink" fill="none" version="1.1" width="21" height="21" viewBox="0 0 21 21"><defs><clipPath id="master_svg0_59_268"><rect x="21" y="0" width="21" height="21" rx="0"/></clipPath><clipPath id="master_svg1_59_269"><rect x="44" y="-1" width="24" height="24" rx="0"/></clipPath></defs><g transform="matrix(-1,0,0,1,42,0)" clip-path="url(#master_svg0_59_268)"><g transform="matrix(-1,0,0,1,88,0)" clip-path="url(#master_svg1_59_269)"><g><g><g transform="matrix(6.123234262925839e-17,-1,1,6.123234262925839e-17,20.999999999999996,67)" style="opacity:0;"><rect x="44" y="23" width="24" height="24" rx="0" fill="#000000" fill-opacity="1"/></g><g><path d="M63.78,9.380004833068847L59.78,4.379999833068847C59.423500000000004,4.0022998330688475,58.83715,3.9604158330688475,58.43056,4.283603833068848C58.02397,4.606791833068848,57.93248,5.1874548330688475,58.22,5.6200048330688475L60.92,9.000004833068846L52,9.000004833068846C50.34315,9.000004833068846,49,10.343144833068848,49,12.000004833068846L49,17.000014833068846C49,17.55231483306885,49.447715,18.000014833068846,50,18.000014833068846C50.55228,18.000014833068846,51,17.55231483306885,51,17.000014833068846L51,12.000004833068846C51,11.447714833068847,51.44772,11.000004833068846,52,11.000004833068846L60.92,11.000004833068846L58.22,14.380014833068847C57.87964,14.811414833068847,57.95109,15.436514833068848,58.38,15.780014833068847C58.55594,15.921114833068847,58.77444,15.998714833068847,59,16.000014833068846C59.3043,15.998614833068848,59.5914,15.858714833068847,59.78,15.620014833068847L63.78,10.620004833068847C64.0672,10.256554833068847,64.0672,9.743444833068848,63.78,9.380004833068847Z" fill="#000000" fill-opacity="1"/></g></g></g></g></g></svg>