<svg xmlns="http://www.w3.org/2000/svg" xmlns:xlink="http://www.w3.org/1999/xlink" fill="none" version="1.1" width="18" height="18" viewBox="0 0 18 18"><defs><clipPath id="master_svg0_59_301"><rect x="0" y="0" width="18" height="18" rx="0"/></clipPath><clipPath id="master_svg1_59_302"><rect x="-2" y="-1" width="21" height="21" rx="0"/></clipPath></defs><g clip-path="url(#master_svg0_59_301)"><g clip-path="url(#master_svg1_59_302)"><g><g><g style="opacity:0;"><rect x="-2" y="-1" width="21" height="21" rx="0" fill="#000000" fill-opacity="1"/></g><g><path d="M13.75,6.875L11.125,6.875L11.125,3.96125C11.1202,2.6729700000000003,10.07703,1.62979755,8.78875,1.625L2.96125,1.625C1.67297,1.62979755,0.62979776,2.6729700000000003,0.625,3.96125L0.625,9.78875C0.62979734,11.07703,1.67297,12.1202,2.96125,12.125L5.875,12.125L5.875,14.75C5.875,16.1997,7.05025,17.375,8.5,17.375L13.75,17.375C15.1997,17.375,16.375,16.1997,16.375,14.75L16.375,9.5C16.375,8.05025,15.1997,6.875,13.75,6.875ZM5.875,9.5L5.875,10.375L2.96125,10.375C2.63747,10.375,2.375,10.11253,2.375,9.78875L2.375,3.96125C2.375,3.63747,2.63747,3.375,2.96125,3.375L8.78875,3.375C9.11253,3.375,9.375,3.63747,9.375,3.96125L9.375,6.875L8.5,6.875C7.05025,6.875,5.875,8.05025,5.875,9.5Z" fill="#000000" fill-opacity="1"/></g></g></g></g></g></svg>