<svg xmlns="http://www.w3.org/2000/svg" xmlns:xlink="http://www.w3.org/1999/xlink" fill="none" version="1.1" width="30" height="30" viewBox="0 0 30 30"><defs><clipPath id="master_svg0_59_655"><rect x="0" y="0" width="30" height="30" rx="0"/></clipPath><clipPath id="master_svg1_59_656"><rect x="0" y="0" width="30" height="30" rx="0"/></clipPath></defs><g clip-path="url(#master_svg0_59_655)"><g clip-path="url(#master_svg1_59_656)"><g><g><g style="opacity:0;"><rect x="0" y="0" width="30" height="30" rx="0" fill="#000000" fill-opacity="1"/></g><g><path d="M25,13.75C24.3096,13.75,23.75,14.3096,23.75,15L23.75,22.5C23.75,23.1904,23.1904,23.75,22.5,23.75L7.5,23.75C6.80964,23.75,6.25,23.1904,6.25,22.5L6.25,7.5C6.25,6.80964,6.80964,6.25,7.5,6.25L15,6.25C15.6904,6.25,16.25,5.69036,16.25,5C16.25,4.3096440000000005,15.6904,3.75,15,3.75L7.5,3.75C5.42893,3.75,3.75,5.42893,3.75,7.5L3.75,22.5C3.75,24.5711,5.42893,26.25,7.5,26.25L22.5,26.25C24.5711,26.25,26.25,24.5711,26.25,22.5L26.25,15C26.25,14.3096,25.6904,13.75,25,13.75Z" fill="#000000" fill-opacity="1"/></g><g><path d="M20.0004140625,6.25L21.9754140625,6.25L14.1129120625,14.1C13.6199150625,14.589,13.6199150625,15.386,14.1129120625,15.875C14.6018830625,16.368000000000002,15.3989440625,16.368000000000002,15.8879140625,15.875L23.750364062499997,8.025L23.750364062499997,10C23.750364062499997,10.69036,24.3100640625,11.25,25.000364062499997,11.25C25.6907640625,11.25,26.250364062499997,10.69036,26.250364062499997,10L26.250364062499997,5C26.250364062499997,4.3096440000000005,25.6907640625,3.75,25.000364062499997,3.75L20.0004140625,3.75C19.3100540625,3.75,18.7504140625,4.3096440000000005,18.7504140625,5C18.7504140625,5.69036,19.3100540625,6.25,20.0004140625,6.25Z" fill="#000000" fill-opacity="1"/></g></g></g></g></g></svg>