<svg t="1661873438490" class="icon" viewBox="0 0 1024 1024" version="1.1" xmlns="http://www.w3.org/2000/svg" p-id="4444" width="20" height="20"><path d="M778.24 716.8a122.88 122.88 0 0 1-122.88 122.88H163.84a122.88 122.88 0 0 1-122.88-122.88V307.2a122.88 122.88 0 0 1 122.88-122.88h491.52a122.88 122.88 0 0 1 122.88 122.88v81.92l145.53088-72.76544A40.96 40.96 0 0 1 983.04 353.01376v317.99296a40.96 40.96 0 0 1-59.26912 36.63872L778.24 634.88v81.92z" fill="#131415" p-id="4445"></path><path d="M143.36 286.72m30.72 0l225.28 0q30.72 0 30.72 30.72l0 0q0 30.72-30.72 30.72l-225.28 0q-30.72 0-30.72-30.72l0 0q0-30.72 30.72-30.72Z" fill="#FFFFFF" p-id="4446"></path></svg>