<svg xmlns="http://www.w3.org/2000/svg" xmlns:xlink="http://www.w3.org/1999/xlink" fill="none" version="1.1" width="20" height="20" viewBox="0 0 20 20"><defs><clipPath id="master_svg0_59_2894"><rect x="0" y="0" width="20" height="20" rx="0"/></clipPath><clipPath id="master_svg1_59_2895"><rect x="-1" y="-1" width="21" height="21" rx="0"/></clipPath><clipPath id="master_svg2_59_2721"><rect x="-1" y="-1" width="21" height="21" rx="0"/></clipPath></defs><g clip-path="url(#master_svg0_59_2894)"><g clip-path="url(#master_svg1_59_2895)"><g><g><g style="opacity:0;"><rect x="-1" y="-1" width="21" height="21" rx="0" fill="#000000" fill-opacity="1"/></g></g></g><g clip-path="url(#master_svg2_59_2721)"><g><g><g style="opacity:0;"><rect x="-1" y="-1" width="21" height="21" rx="0" fill="#000000" fill-opacity="1"/></g><g><path d="M6.875,1.625L3.375,1.625C2.408502,1.625,1.625,2.408502,1.625,3.375L1.625,6.875C1.625,7.8415,2.408502,8.625,3.375,8.625L6.875,8.625C7.8415,8.625,8.625,7.8415,8.625,6.875L8.625,3.375C8.625,2.408502,7.8415,1.625,6.875,1.625Z" fill="#000000" fill-opacity="1"/></g><g><path d="M15.625,1.625L12.125,1.625C11.158502,1.625,10.375,2.408502,10.375,3.375L10.375,6.875C10.375,7.8415,11.158502,8.625,12.125,8.625L15.625,8.625C16.5915,8.625,17.375,7.8415,17.375,6.875L17.375,3.375C17.375,2.408502,16.5915,1.625,15.625,1.625Z" fill="#000000" fill-opacity="1"/></g><g><path d="M6.875,10.375L3.375,10.375C2.408502,10.375,1.625,11.158502,1.625,12.125L1.625,15.625C1.625,16.5915,2.408502,17.375,3.375,17.375L6.875,17.375C7.8415,17.375,8.625,16.5915,8.625,15.625L8.625,12.125C8.625,11.158502,7.8415,10.375,6.875,10.375Z" fill="#000000" fill-opacity="1"/></g><g><path d="M15.625,10.375L12.125,10.375C11.158502,10.375,10.375,11.158502,10.375,12.125L10.375,15.625C10.375,16.5915,11.158502,17.375,12.125,17.375L15.625,17.375C16.5915,17.375,17.375,16.5915,17.375,15.625L17.375,12.125C17.375,11.158502,16.5915,10.375,15.625,10.375Z" fill="#000000" fill-opacity="1"/></g></g></g></g></g></g></svg>