<svg xmlns="http://www.w3.org/2000/svg" xmlns:xlink="http://www.w3.org/1999/xlink" fill="none" version="1.1" width="21" height="21" viewBox="0 0 21 21"><defs><clipPath id="master_svg0_59_308"><rect x="0" y="0" width="21" height="21" rx="0"/></clipPath></defs><g clip-path="url(#master_svg0_59_308)"><g><g><g style="opacity:0;"><rect x="0" y="0" width="21" height="21" rx="0" fill="#000000" fill-opacity="1"/></g><g><path d="M17.5,3.5L3.5,3.5C3.016751,3.5,2.625,3.891751,2.625,4.375L2.625,7C2.625,7.48325,3.016751,7.875,3.5,7.875C3.98325,7.875,4.375,7.48325,4.375,7L4.375,5.25L9.625,5.25L9.625,16.625L7.875,16.625C7.39175,16.625,7,17.0168,7,17.5C7,17.9832,7.39175,18.375,7.875,18.375L13.125,18.375C13.6082,18.375,14,17.9832,14,17.5C14,17.0168,13.6082,16.625,13.125,16.625L11.375,16.625L11.375,5.25L16.625,5.25L16.625,7C16.625,7.48325,17.0168,7.875,17.5,7.875C17.9832,7.875,18.375,7.48325,18.375,7L18.375,4.375C18.375,3.891751,17.9832,3.5,17.5,3.5Z" fill="#000000" fill-opacity="1"/></g></g></g></g></svg>