<svg xmlns="http://www.w3.org/2000/svg" xmlns:xlink="http://www.w3.org/1999/xlink" fill="none" version="1.1" width="21" height="21" viewBox="0 0 21 21"><defs><clipPath id="master_svg0_59_262"><rect x="0" y="0" width="21" height="21" rx="0"/></clipPath><clipPath id="master_svg1_59_263"><rect x="-2" y="-1" width="24" height="24" rx="0"/></clipPath></defs><g clip-path="url(#master_svg0_59_262)"><g clip-path="url(#master_svg1_59_263)"><g><g><g transform="matrix(6.123234262925839e-17,1,-1,6.123234262925839e-17,21,-23)" style="opacity:0;"><rect x="22" y="-1" width="24" height="24" rx="0" fill="#000000" fill-opacity="1"/></g><g><path d="M13.99979453125,8.999998368988038L5.07979453125,8.999998368988038L7.77979453125,5.619998368988037C8.18187453125,5.194038368988037,8.13338453125,4.515239368988037,7.67483453125,4.150753368988037C7.21628453125,3.786266368988037,6.54405453125,3.892179468988037,6.21979453125,4.380000368988037L2.21979253125,9.379998368988037C1.93259503125,9.743448368988037,1.93259503125,10.256558368988038,2.21979253125,10.619998368988037L6.21979453125,15.619988368988038C6.40844453125,15.858688368988037,6.69552453125,15.998588368988036,6.99979453125,15.999988368988037C7.22535453125,15.998688368988038,7.44385453125,15.921188368988037,7.61979453125,15.779988368988038C8.04870453125,15.436588368988037,8.12015453125,14.811388368988037,7.77979453125,14.379988368988037L5.07979453125,10.999998368988038L13.99979453125,10.999998368988038C14.55209453125,10.999998368988038,14.99979453125,11.447718368988038,14.99979453125,11.999998368988036L14.99979453125,16.999988368988035C14.99979453125,17.552288368988037,15.44749453125,17.999988368988035,15.99979453125,17.999988368988035C16.55209453125,17.999988368988035,16.99979453125,17.552288368988037,16.99979453125,16.999988368988035L16.99979453125,11.999998368988036C16.99979453125,10.343148368988036,15.65669453125,8.999998368988038,13.99979453125,8.999998368988038Z" fill="#000000" fill-opacity="1"/></g></g></g></g></g></svg>